<?xml version="1.0" standalone="no"?><!DOCTYPE svg PUBLIC "-//W3C//DTD SVG 1.1//EN" "http://www.w3.org/Graphics/SVG/1.1/DTD/svg11.dtd"><svg t="1498716931609" class="icon" style="" viewBox="0 0 1024 1024" version="1.1" xmlns="http://www.w3.org/2000/svg" p-id="2344" xmlns:xlink="http://www.w3.org/1999/xlink" width="200" height="200"><defs><style type="text/css"></style></defs><path d="M972.8 460.8 563.2 460.8 563.2 51.2C563.2 22.922667 540.277333 0 512 0s-51.2 22.922667-51.2 51.2l0 409.6L51.2 460.8C22.922667 460.8 0 483.722667 0 512s22.922667 51.2 51.2 51.2l409.6 0 0 409.6c0 28.277333 22.922667 51.2 51.2 51.2s51.2-22.922667 51.2-51.2L563.2 563.2l409.6 0c28.277333 0 51.2-22.922667 51.2-51.2S1001.077333 460.8 972.8 460.8z" p-id="2345" fill="#ffffff"></path></svg>