<?xml version="1.0" standalone="no"?><!DOCTYPE svg PUBLIC "-//W3C//DTD SVG 1.1//EN" "http://www.w3.org/Graphics/SVG/1.1/DTD/svg11.dtd"><svg t="1487753171133" class="icon" style="" viewBox="0 0 1024 1024" version="1.1" xmlns="http://www.w3.org/2000/svg" p-id="2963" xmlns:xlink="http://www.w3.org/1999/xlink" width="200" height="200"><defs><style type="text/css"></style></defs><path d="M512 0C230.4 0 0 230.4 0 512c0 281.6 230.4 512 512 512 281.6 0 512-230.4 512-512C1024 230.4 793.6 0 512 0L512 0zM512 969.6C259.2 969.6 54.4 764.8 54.4 512S259.2 54.4 512 54.4c252.8 0 457.6 204.8 457.6 457.6S764.8 969.6 512 969.6L512 969.6zM755.2 560 374.4 560 384 608l345.6 0c12.8 0 22.4 9.6 22.4 22.4 0 12.8-9.6 22.4-22.4 22.4L374.4 652.8l0 0c-9.6 3.2-16 0-22.4-6.4 0 0-3.2 0-3.2-3.2l0 0c-3.2-3.2-6.4-9.6-6.4-16l0 0L272 316.8 243.2 316.8c-12.8 0-22.4-9.6-22.4-22.4 0-12.8 9.6-22.4 22.4-22.4l41.6 0 0 0c6.4 0 12.8 0 16 3.2l0 0 3.2 0C310.4 278.4 316.8 288 316.8 294.4l0 3.2 48 227.2L364.8 512l368 0c12.8 0 25.6-9.6 25.6-25.6l0-48c0-12.8-9.6-25.6-25.6-25.6L416 412.8c-12.8 0-25.6-9.6-25.6-22.4 0-12.8 9.6-22.4 25.6-22.4l0 0 342.4 0c25.6 0 48 22.4 48 48l0 96C803.2 537.6 784 560 755.2 560L755.2 560 755.2 560zM403.2 707.2c19.2 0 35.2 16 35.2 38.4 0 22.4-16 38.4-35.2 38.4-19.2 0-35.2-16-35.2-38.4C368 723.2 384 707.2 403.2 707.2L403.2 707.2 403.2 707.2zM672 707.2c19.2 0 35.2 16 35.2 38.4 0 19.2-16 38.4-35.2 38.4-19.2 0-35.2-16-35.2-38.4C633.6 723.2 649.6 707.2 672 707.2L672 707.2 672 707.2zM672 707.2" p-id="2964" fill="#ffffff"></path></svg>