<?xml version="1.0" standalone="no"?><!DOCTYPE svg PUBLIC "-//W3C//DTD SVG 1.1//EN" "http://www.w3.org/Graphics/SVG/1.1/DTD/svg11.dtd"><svg t="1487812946239" class="icon" style="" viewBox="0 0 1024 1024" version="1.1" xmlns="http://www.w3.org/2000/svg" p-id="7978" xmlns:xlink="http://www.w3.org/1999/xlink" width="200" height="200"><defs><style type="text/css"></style></defs><path d="M1009.456261 401.809365l0-94.110401L750.941486 307.698964 802.919301 12.911054l-94.110401 0-51.978838 294.786886L436.778296 307.697941 488.756111 12.911054l-94.110401 0-51.978838 294.786886L12.300652 307.697941l0 94.110401 313.772286 0-38.800701 220.052788L12.300652 621.86113l0 94.110401 258.377652 0L218.820216 1010.067686l94.110401 0 51.857065-294.095132 220.051765 0L532.983405 1010.067686l94.111424 0 51.857065-294.095132 330.505389 0 0-94.110401L695.545828 621.862153l38.801724-220.052788L1009.456261 401.809365zM601.434403 621.86113 381.382639 621.86113l38.801724-220.052788 220.052788 0L601.434403 621.86113z" p-id="7979" fill="#fff1de"></path></svg>