<?xml version="1.0" standalone="no"?><!DOCTYPE svg PUBLIC "-//W3C//DTD SVG 1.1//EN" "http://www.w3.org/Graphics/SVG/1.1/DTD/svg11.dtd"><svg t="1487809826265" class="icon" style="" viewBox="0 0 1024 1024" version="1.1" xmlns="http://www.w3.org/2000/svg" p-id="6455" xmlns:xlink="http://www.w3.org/1999/xlink" width="200" height="200"><defs><style type="text/css"></style></defs><path d="M940.704871 0 83.294109 0c-45.09977 0-81.658411 36.558641-81.658411 81.658411l0 857.410762c0 45.09977 36.558641 81.658411 81.658411 81.658411l857.410762 0c45.09977 0 81.658411-36.558641 81.658411-81.658411L1022.363282 81.658411C1022.364302 36.558641 985.805661 0 940.704871 0zM244.793148 813.015868c-13.086604-7.427201-28.158284-15.07168-45.177296-22.921194 30.117857-47.161351 53.910199-92.555924 71.376006-136.221461l45.842388 19.643677C297.192609 718.48711 273.169729 764.983369 244.793148 813.015868zM345.647421 546.461867c0 52.834015-24.66247 79.251022-74.001691 79.251022-18.772529 0-39.069058-0.435574-60.901826-1.318963-1.754537-14.841141-4.366962-32.742522-7.862775-53.691902 21.397195 3.495814 40.822575 5.23709 58.289402 5.23709 23.138471 0 34.714337-11.793143 34.714337-35.368208l0-74.987089c-26.19973 8.297329-56.548126 17.799373-91.031924 28.49185l-9.821329-52.3862c34.049245-8.732903 67.662915-17.799373 100.854273-27.185128l0-99.867856-93.003739 0 0-45.189537 93.003739 0L295.885887 172.524062l49.761534 0 0 96.922885 77.279208 0 0 45.189537-77.279208 0 0 85.462288c24.02288-7.41394 47.814202-14.956411 71.389267-22.600889 0 20.091492 0.435574 36.687171 1.305702 49.773775-2.395147 0.883389-26.635305 8.515626-72.694969 22.921194L345.647421 546.461867zM434.720792 803.84739c-18.772529-44.97226-37.775596-86.230409-56.970439-123.775467l43.217722-18.989806c20.078231 36.67391 40.822575 77.266967 62.22079 121.803653L434.720792 803.84739zM602.379073 797.943168c-16.595679-41.040872-36.021059-81.415632-58.289402-121.149781l43.217722-18.989806c22.268343 38.850761 43.229963 78.803207 62.873641 119.844079L602.379073 797.943168zM785.096793 799.262132c-23.151732-43.229963-49.773775-88.4195-79.903873-135.56861l41.911-24.880767c28.376581 41.911 56.534865 86.230409 84.489132 132.943944L785.096793 799.262132zM831.592032 568.077359c-9.168478 40.169724-29.477247 60.248975-60.914067 60.248975-37.545058 0-62.86038-30.335134-75.960245-91.031924-7.862775-40.592037-11.141312-114.376451-9.821329-221.351203l-101.83967 0c-0.652851 45.625111-5.889941 87.434103-15.71229 125.413715 30.770708 19.860954 61.003834 40.054455 90.699378 60.581521l-32.742522 46.495239c-25.764156-19.860954-50.644924-38.530455-74.666784-55.997282-27.288156 65.281029-71.17097 116.027961-131.624981 152.266297-10.923015-13.535439-23.587306-27.72373-37.992873-42.564871 59.595104-31.43682 101.622393-78.265625 126.067586-140.486415-25.328582-17.670843-49.658506-33.933976-73.015274-48.787358l28.158284-37.326761c20.078231 12.228717 40.054455 24.560462 59.92867 37.007476 6.761089-29.477247 10.358911-61.669946 10.794485-96.60258l-80.544484 0 0-47.14911 81.530901 0c0.871148-36.238336 1.203694-69.199156 0.986417-98.8947l50.426626 0c0 28.376581-0.435574 61.349641-1.305702 98.8947l151.933751 0c-3.931388 129.229834-1.100666 216.766965 8.515626 262.609352 5.672664 25.764156 13.969993 38.645724 24.880767 38.645724 8.732903 0 14.405567-7.427201 17.031253-22.268343 3.931388-21.397195 7.41394-50.644924 10.47418-87.754408 16.595679 6.108238 32.743543 11.345328 48.468073 15.71229C840.977786 514.602734 836.394568 545.373442 831.592032 568.077359z" p-id="6456" fill="#bfbfbf"></path></svg>