<?xml version="1.0" standalone="no"?><!DOCTYPE svg PUBLIC "-//W3C//DTD SVG 1.1//EN" "http://www.w3.org/Graphics/SVG/1.1/DTD/svg11.dtd"><svg t="1487813575027" class="icon" style="" viewBox="0 0 1694 1024" version="1.1" xmlns="http://www.w3.org/2000/svg" p-id="8690" xmlns:xlink="http://www.w3.org/1999/xlink" width="330.859375" height="200"><defs><style type="text/css"></style></defs><path d="M819.228107 614.407662c0 226.231667-183.398982 409.592338-409.63065 409.592338C183.404102 1024 0.00512 840.63933 0.00512 614.407662 0.00512 275.079318 275.084438 0 614.412782 0c-67.888656 0-122.90452 55.015864-122.90452 122.866208 0 49.613888 29.844957 94.362167 75.627656 113.441485C719.77046 299.905418 819.228107 449.053577 819.228107 614.407662zM1692.750526 614.407662c0 226.231667-183.398982 409.592338-409.63065 409.592338-226.193355 0-409.592338-183.36067-409.592338-409.592338C873.527538 275.079318 1148.606856 0 1487.935201 0c-67.888656 0-122.90452 55.015864-122.90452 122.866208 0 49.613888 29.844957 94.362167 75.627656 113.441485C1593.292878 299.905418 1692.750526 449.053577 1692.750526 614.407662zM819.212782 614.403831 819.212782 614.403831 819.212782 614.403831Z" p-id="8691" fill="#cdcdcd"></path></svg>