<?xml version="1.0" standalone="no"?><!DOCTYPE svg PUBLIC "-//W3C//DTD SVG 1.1//EN" "http://www.w3.org/Graphics/SVG/1.1/DTD/svg11.dtd"><svg t="1487573923960" class="icon" style="" viewBox="0 0 1024 1024" version="1.1" xmlns="http://www.w3.org/2000/svg" p-id="12333" xmlns:xlink="http://www.w3.org/1999/xlink" width="200" height="200"><defs><style type="text/css"></style></defs><path d="M506.102535 16.469361c-277.530054 0-502.509532 224.985525-502.509532 502.502477 0 277.531062 224.979478 502.502477 502.509532 502.502477 277.521991 0 502.502477-224.972423 502.502477-502.502477C1008.605012 241.454886 783.625535 16.469361 506.102535 16.469361zM773.522794 480.009165c-16.322214 0-31.387633-5.238831-43.729828-14.053532l-86.000281 88.525967c11.4704 13.232131 18.463907 30.450328 18.463907 49.337534 0 41.660701-33.769195 75.423849-75.425865 75.423849-41.648607 0-75.411755-33.763148-75.411755-75.423849 0-18.137362 6.410967-34.768988 17.078106-47.778382l-54.090579-55.678959c-13.016449 10.70443-29.68335 17.138577-47.858003 17.138577-18.169613 0-34.829459-6.434147-47.851956-17.138577l-82.190589 84.613473c10.961433 13.09607 17.580018 29.952448 17.580018 48.373017 0 41.650623-33.76214 75.411755-75.424857 75.411755-41.643568 0-75.412763-33.761132-75.412763-75.411755 0-41.662717 33.768187-75.423849 75.412763-75.423849 18.714863 0 35.804055 6.850392 48.9868 18.137362l82.085772-84.496562c-11.55002-13.249264-18.598959-30.528941-18.598959-49.48972 0-41.637521 33.76214-75.411755 75.412763-75.411755 41.655662 0 75.419818 33.774235 75.419818 75.411755 0 18.954732-7.048939 36.234409-18.59392 49.483673l53.912189 55.501576c13.255311-11.580256 30.554137-18.654391 49.544144-18.654391 18.244194 0 34.977614 6.477485 48.019259 17.260528l85.293775-87.802327c-13.612092-13.642328-22.026675-32.468054-22.026675-53.268169 0-41.650623 33.763148-75.412763 75.405708-75.412763 41.65667 0 75.417802 33.76214 75.417802 75.412763C848.940597 446.259119 815.179464 480.009165 773.522794 480.009165z" p-id="12334" fill="#ffe5c3"></path></svg>