<?xml version="1.0" standalone="no"?><!DOCTYPE svg PUBLIC "-//W3C//DTD SVG 1.1//EN" "http://www.w3.org/Graphics/SVG/1.1/DTD/svg11.dtd"><svg t="1487752871577" class="icon" style="" viewBox="0 0 1024 1024" version="1.1" xmlns="http://www.w3.org/2000/svg" p-id="2046" xmlns:xlink="http://www.w3.org/1999/xlink" width="200" height="200"><defs><style type="text/css"></style></defs><path d="M837.8624 186.1632C750.8224 99.1488 635.136 51.2 512.0256 51.2S273.2032 99.1488 186.1632 186.1888c-179.6608 179.6608-179.6608 471.9872 0 651.648C273.2032 924.8512 388.8896 972.8 511.9744 972.8c123.1104 0 238.7968-47.9232 325.8368-134.9376C1017.472 658.176 1017.4976 365.824 837.8624 186.1632zM810.6496 810.6752C730.88 890.4448 624.8192 934.4 511.9744 934.4c-112.8192 0-218.88-43.9296-298.6496-123.6992-164.6848-164.6848-164.6848-432.64 0-597.3248C293.0944 133.5552 399.2064 89.6 512.0256 89.6s218.9056 43.9296 298.6752 123.6992C975.3856 378.0096 975.36 645.9904 810.6496 810.6752z" p-id="2047" fill="#8a8a8a"></path><path d="M749.5424 274.3808c-50.9184-51.2256-134.0416-51.5328-185.2672-0.6144l-113.92 113.1776c-51.2512 50.9184-51.5328 134.0416-0.6144 185.2928l6.2208 6.272 27.2384-27.0848-6.2208-6.272c-35.9936-36.224-35.7888-94.976 0.4352-130.9696l113.92-113.1776c36.2752-35.9936 95.0016-35.7888 130.9696 0.4352l6.2208 6.2464c35.968 36.2496 35.7632 94.976-0.4352 130.9696l-58.4704 58.0864 27.0592 27.2384 58.4704-58.0864c51.2512-50.9184 51.5328-134.0416 0.6144-185.2928L749.5424 274.3808z" p-id="2048" fill="#8a8a8a"></path><path d="M568.0384 445.9008l-27.2384 27.0848 6.2208 6.272c17.4592 17.536 27.008 40.832 26.9056 65.5872-0.0768 24.7296-9.7792 47.9744-27.3152 65.3824l-113.92 113.1776c-17.4848 17.3568-40.6528 26.9056-65.2544 26.9056-0.128 0-0.2304 0-0.3328 0-24.7552-0.0768-47.9744-9.7792-65.4336-27.3664l-6.1952-6.2208c-35.968-36.2496-35.7632-95.0016 0.4352-130.9952l69.5808-69.0944-27.0592-27.2384-69.5808 69.0944c-51.2512 50.9184-51.5328 134.0416-0.5888 185.3184l6.1952 6.2464c24.6784 24.832 57.5232 38.5536 92.5184 38.6816 0.1536 0 0.3072 0 0.4608 0 34.816 0 67.6096-13.5168 92.288-38.0672l113.92-113.1776c24.832-24.6528 38.5792-57.5232 38.6816-92.5184 0.128-34.9952-13.3888-67.9424-38.0416-92.7744L568.0384 445.9008z" p-id="2049" fill="#8a8a8a"></path></svg>