<?xml version="1.0" standalone="no"?><!DOCTYPE svg PUBLIC "-//W3C//DTD SVG 1.1//EN" "http://www.w3.org/Graphics/SVG/1.1/DTD/svg11.dtd"><svg t="1487573595992" class="icon" style="" viewBox="0 0 1024 1024" version="1.1" xmlns="http://www.w3.org/2000/svg" p-id="6098" xmlns:xlink="http://www.w3.org/1999/xlink" width="200" height="200"><defs><style type="text/css"></style></defs><path d="M512 32C246.848 32 32 246.848 32 512s214.848 480 480 480 480-214.848 480-480S777.152 32 512 32zM576.064 832.064 447.936 832.064 447.936 576l128.128 0L576.064 832.064zM800 479.936l0 352-192 0L608 543.936l-192 0 0 287.936-192 0 0-352-64 0 352-352 128 128 0-96 128 0 0 224 96 96L800 479.872z" p-id="6099" fill="#ffffff"></path></svg>