<?xml version="1.0" standalone="no"?><!DOCTYPE svg PUBLIC "-//W3C//DTD SVG 1.1//EN" "http://www.w3.org/Graphics/SVG/1.1/DTD/svg11.dtd"><svg t="1487573572111" class="icon" style="" viewBox="0 0 1024 1024" version="1.1" xmlns="http://www.w3.org/2000/svg" p-id="5950" xmlns:xlink="http://www.w3.org/1999/xlink" width="200" height="200"><defs><style type="text/css"></style></defs><path d="M529.344 322.688C524.352 316.16 514.752 314.816 508.352 319.936L392.64 409.152c-4.48 3.52-4.416 8.512-4.288 12.16l0 101.056c0 8.512 6.848 15.296 15.232 15.296 8.448 0 15.296-6.784 15.296-15.296L418.88 428.8l109.312-84.8C534.4 339.008 534.848 329.792 529.344 322.688z" p-id="5951" fill="#ffe5c3"></path><path d="M403.52 542.656c-8.384 0-15.232 6.784-15.232 15.232l0 8.96c0 8.32 6.848 15.104 15.232 15.104 8.448 0 15.296-6.784 15.296-15.104l0-8.96C418.816 549.504 411.968 542.656 403.52 542.656z" p-id="5952" fill="#ffe5c3"></path><path d="M830.784 408.832 537.6 188.224c-0.64-0.448-1.216-0.576-1.728-0.96C534.528 186.496 533.12 186.048 531.776 185.472c-2.24-1.024-4.48-2.048-6.976-2.368C523.264 182.848 521.664 182.848 520.128 182.848c-2.24 0-4.288-0.128-6.464 0.32C511.552 183.552 509.632 184.32 507.648 185.152 505.984 185.856 504.384 186.368 502.848 187.392c-0.576 0.384-1.28 0.384-1.792 0.832L207.872 408.832C194.56 418.944 191.808 438.016 201.92 451.52c5.888 7.68 14.784 12.096 24.384 12.096 6.528 0 12.8-2.048 18.304-6.144l25.6-19.264 0 276.224c0 78.464 24.768 104.896 98.24 104.896l301.952 0c75.52 0 105.024-29.376 105.024-104.896L775.424 443.328l18.88 14.208c5.376 3.968 11.648 6.144 18.24 6.144 9.536 0 18.496-4.416 24.32-12.096 4.928-6.464 7.04-14.592 5.952-22.592C841.472 420.864 837.312 413.696 830.784 408.832zM714.368 714.496c0 43.968-3.264 43.968-44.032 43.968L368.448 758.464c-37.248 0-37.248 0-37.248-43.968L331.2 398.08c0-1.728-0.704-3.328-1.024-5.056l189.248-142.336 195.136 146.752c0 0.192-0.128 0.448-0.128 0.576L714.432 714.496z" p-id="5953" fill="#ffe5c3"></path><path d="M512 1024c-282.368 0-512-229.696-512-512.064C0 229.632 229.632 0 512 0c282.24 0 512 229.696 512 511.936C1024 794.304 794.24 1024 512 1024zM512 38.016c-261.312 0-473.856 212.672-473.856 473.92 0 261.312 212.544 473.92 473.856 473.92 261.184 0 473.792-212.608 473.792-473.92C985.792 250.688 773.184 38.016 512 38.016z" p-id="5954" fill="#ffe5c3"></path><path d="M460.608 620.352c0-17.728-3.392-18.048 16.128-18.048l85.248 0c19.584 0 22.976 0.32 22.976 18.048l0 139.072 17.728 0L602.688 620.352c0-30.656-14.848-35.968-40.768-35.968L476.736 584.384c-25.792 0-33.984 5.248-33.984 35.968l0 139.072 17.856 0L460.608 620.352z" p-id="5955" fill="#ffe5c3"></path></svg>