<?xml version="1.0" standalone="no"?><!DOCTYPE svg PUBLIC "-//W3C//DTD SVG 1.1//EN" "http://www.w3.org/Graphics/SVG/1.1/DTD/svg11.dtd"><svg t="1487813616754" class="icon" style="" viewBox="0 0 1693 1024" version="1.1" xmlns="http://www.w3.org/2000/svg" p-id="9054" xmlns:xlink="http://www.w3.org/1999/xlink" width="330.6640625" height="200"><defs><style type="text/css"></style></defs><path d="M863.968 415.992c0-212.092 171.937-383.993 384.029-383.993 212.057 0 383.993 171.901 383.993 383.992 0 318.12-257.887 576.008-576.008 576.008 63.646 0 115.223-51.578 115.223-115.186 0-46.512-27.981-88.464-70.901-106.351-143.095-59.623-236.336-199.449-236.336-354.469z" p-id="9055" fill="#cdcdcd"></path><path d="M45.042 415.992c0-212.092 171.937-383.993 384.029-383.993 212.057 0 383.992 171.901 383.992 383.992 0 318.12-257.887 576.008-576.007 576.008 63.646 0 115.223-51.578 115.223-115.186 0-46.512-27.981-88.464-70.901-106.351-143.095-59.623-236.336-199.449-236.336-354.469z" p-id="9056" fill="#cdcdcd"></path><path d="M863.983 415.996v0 0z" p-id="9057" fill="#cdcdcd"></path></svg>