<?xml version="1.0" standalone="no"?><!DOCTYPE svg PUBLIC "-//W3C//DTD SVG 1.1//EN" "http://www.w3.org/Graphics/SVG/1.1/DTD/svg11.dtd"><svg t="1487573719600" class="icon" style="" viewBox="0 0 1024 1024" version="1.1" xmlns="http://www.w3.org/2000/svg" p-id="6985" xmlns:xlink="http://www.w3.org/1999/xlink" width="200" height="200"><defs><style type="text/css"></style></defs><path d="M511.19517 43.351344c-258.669294 0-468.3959 209.724559-468.3959 468.3959 0 258.699993 209.726605 468.396923 468.3959 468.396923 258.668271 0 468.3959-209.696929 468.3959-468.396923C979.590046 253.074879 769.863441 43.351344 511.19517 43.351344zM511.19517 921.590586c-226.364541 0-409.845389-183.480848-409.845389-409.844366 0-226.333842 183.480848-409.845389 409.845389-409.845389s409.845389 183.511547 409.845389 409.845389C921.039535 738.109738 737.559711 921.590586 511.19517 921.590586z" p-id="6986" fill="#ffffff"></path><path d="M548.160059 355.62551l2.058892 0 19.526729 0 97.600899 0 19.497053 0 19.4991 0 0-39.025828c0-10.777461-8.719592-19.525706-19.4991-19.525706L550.217928 297.073976c-8.208962 0-15.230889 5.083785-18.11559 12.267395l-30.856775 46.284139 29.445636 0L548.160059 355.62551zM725.866391 375.151215 535.135418 375.151215l-24.105001 0L296.495296 375.151215c-10.749832 0-19.498076 8.749268-19.498076 19.525706l0 19.49603 0 19.525706 0 253.723655 468.394876 0L745.392096 433.697633l0-19.525706 0-19.49603C745.392096 383.89946 736.641805 375.151215 725.866391 375.151215z" p-id="6987" fill="#ffffff"></path></svg>